<svg xmlns="http://www.w3.org/2000/svg" fill="currentColor" viewBox="0 0 24 24"><path d="M5 3.4q.9.2 2.5 1.3A19 19 0 0 1 12 9.6a19 19 0 0 1 4.5-5q1.5-1 2.6-1.2l1.6.2q1.4 1 1.3 2.6l-.5 5q-.6 1.8-2 2.6 1.5 1.2 1 3c-.7 2-2.8 4.4-4.9 4.6-1.8.2-3-1.3-3.6-2.8-.7 1.5-1.8 3-3.6 2.8-2.1-.2-4.2-2.7-4.8-4.6q-.5-1.8.9-3a4 4 0 0 1-2.1-3.6l-.4-4q-.1-1.7 1.3-2.6.4-.2 1.6-.2M4 7l.3 3q0 .5.2.8c.4 1.4 1.9 2.1 3.6 1.9a1 1 0 0 1 .3 2c-.8.1-3.3.3-3 1.6.4 1.1 2 3 3.2 3.2 1 .1 1.5-1.4 1.8-2l.6-2a1 1 0 0 1 2 0l.6 2c.3.6.9 2.1 1.8 2 1.3-.1 2.8-2 3.1-3.2s-2.1-1.5-2.9-1.6a1 1 0 0 1 .3-2c1.7.2 3.2-.5 3.6-1.9l.2-.8.3-3c0-.5.2-1.6-.6-1.5q-.4 0-1.7 1-3 2.1-4.8 5.6a1 1 0 0 1-1.8 0Q9.4 8.6 6.3 6.3l-1.7-.9C3.8 5.3 4 6.4 4 7"/></svg>
