<svg xmlns="http://www.w3.org/2000/svg" fill="currentColor" viewBox="0 0 24 24"><path d="M8.5 13.8q-1.7-.2-1.9-2c0-1.2.9-2.2 2-2.2 1 0 1.8 1 1.8 2.1q-.1 2-1.9 2.1m7 0q-1.7-.2-1.9-2c0-1.2.8-2.2 1.9-2.2s1.9 1 1.9 2.1q-.1 2-2 2.1M10 4.3l-.3-.5h-.6Q7 4.3 5 5.2l-.2.2-.1.2a17 17 0 0 0-3 11.3v.4l.3.3A17 17 0 0 0 7.1 20l.8.3L9 17.6q3 .6 6 0l1 2.7.9-.3q2.4-.7 5-2.5l.4-.3v-.4q.5-6.4-3-11.3v-.3H19q-2-1-4.2-1.3l-.6-.1-.3.5q0 .3-.3.5-1.5-.1-3.2 0zM6.7 16.6l.6.3L7 18a15 15 0 0 1-3.5-1.7Q3 11.6 6 6.7l2.8-1 .2.4.3.7.7-.1q2-.3 4 0h.7l.3-.6.2-.3q1.5.3 2.8.9 2.9 4.2 2.5 9.6-1.7 1.2-3.4 1.7l-.4-1 2-1.4-1.3-1.2-1 .6-1.2.6c-2 .7-4.4.7-6.4 0a7 7 0 0 1-2.2-1.2l-1.2 1.2q.5.6 1.3 1"/></svg>
