<svg xmlns="http://www.w3.org/2000/svg" fill="currentColor" viewBox="0 0 24 24"><path d="M8.8 5.5q.1-1.6 1.7-1.7h3q1.7.1 1.8 1.7v3a2 2 0 0 1-1.8 1.8h-3a2 2 0 0 1-1.7-1.8zm1.7-.2-.2.2v3q0 .2.2.3h3l.3-.3v-3l-.3-.2zM7.8 16q.1-1.6 1.7-1.7h3q1.7.1 1.8 1.7v3a2 2 0 0 1-1.8 1.8h-3A2 2 0 0 1 7.8 19zm1.7-.2-.2.2v3q0 .2.2.3h3l.3-.3v-3l-.3-.2zm-7-1.6A2 2 0 0 0 .8 16v3q.1 1.7 1.7 1.8h4v-1.6h-4l-.2-.2v-3l.2-.2h4v-1.6zM17 15.9l-.2.2v4.5h-1.6V16q.2-1.6 1.8-1.7h6.3v6.2h-1.6v-4.7H20v4.7h-1.5v-4.7zM.8 5.4q.1-1.6 1.7-1.7h3q1.6.1 1.8 1.7V11a2 2 0 0 1-1.8 1.8H1v-1.6h4.5l.3-.2V5.5l-.3-.2h-3l-.2.2v3q0 .2.2.3H5v1.4H2.5A2 2 0 0 1 .8 8.6zm17.7-1.7a2 2 0 0 0-1.7 1.7v3q.1 1.7 1.7 1.8H21V8.7h-2.5l-.2-.2v-3l.2-.2h3l.3.2V11l-.3.3H17v1.4h4.5a2 2 0 0 0 1.8-1.7V5.5a2 2 0 0 0-1.8-1.7z"/></svg>
