<svg xmlns="http://www.w3.org/2000/svg" fill="currentColor" viewBox="0 0 24 24"><path d="M12 9a3 3 0 1 0 0 6 3 3 0 0 0 0-6m0-2a5 5 0 1 1 0 10 5 5 0 0 1 0-10m6.5-.3a1.3 1.3 0 1 1-2.5 0 1.3 1.3 0 0 1 2.5 0M12 4l-5.8.4L5 5l-.7 1Q4 6.9 4 8a70 70 0 0 0 .3 9.8L5 19l1 .7q.7.3 1.9.3a70 70 0 0 0 9.8-.3L19 19l.7-1q.3-.7.3-1.9a70 70 0 0 0-.3-9.8L19 5l-1-.7q-.9-.3-2-.3zm0-2h4.1l2.5.5q1 .4 1.7 1.2a5 5 0 0 1 1.2 1.8q.3.8.4 2.4a72 72 0 0 1-.4 10.6q-.4 1-1.2 1.8a5 5 0 0 1-1.7 1.2q-1 .4-2.5.4a72 72 0 0 1-10.6-.4q-1-.4-1.8-1.2t-1.2-1.7-.4-2.5a72 72 0 0 1 .4-10.7q.4-1 1.2-1.7.7-.9 1.8-1.2.8-.4 2.4-.4z"/></svg>
