<svg xmlns="http://www.w3.org/2000/svg" fill="currentColor" viewBox="0 0 32 32"><path d="M32 16a16 16 0 1 1-32 0 16 16 0 0 1 32 0M16 29.5a13.5 13.5 0 1 0 0-27 13.5 13.5 0 0 0 0 27"/><path d="M18.2 11h-4.5v11.6h4.5a5.9 5.9 0 0 0 4.7-9.8 6 6 0 0 0-4.7-1.8m-.2 9.7h-2.3v-7.9H18q2.3 0 3.3 1.2t1 2.8q0 1-.8 2.4T18 20.7m0-8c3 0 4.5 1.8 4.5 4 0-2.2-1.4-4-4.5-4h-2.5zm6.2 4c0 3-2.3 5.7-6 5.7H14V11.2v11.2h4.3c3.7 0 6-2.8 6-5.6zM9.5 11v11.6h2V11zm1.8.2v11.2zH9.7zm-.8-1q1.2-.1 1.3-1.3-.1-1.2-1.3-1.3-1.1.1-1.2 1.3t1.2 1.2m.6-.5"/></svg>
