<svg xmlns="http://www.w3.org/2000/svg" fill="currentColor" viewBox="0 0 24 24"><path d="m11 7.8.8-3.5a2 2 0 0 1 2.4-1.6l3.2.7a2 2 0 1 1-.4 2l-3.2-.7-.7 3.1q2.8.3 5.2 1.7a3.2 3.2 0 0 1 4.7 2.7q0 1.6-1.2 2.6v.1c0 4-4.5 7-9.8 7s-9.7-3-9.7-7v-.1a3.2 3.2 0 0 1 3.4-5.4Q8.3 8 11.1 7.8m9.3 5.5q.6-.3.7-1a1.2 1.2 0 0 0-2-.8l-.6.5-.7-.4a10 10 0 0 0-5.2-1.8h-1q-2.9 0-5.2 1.7l-.7.4-.6-.5a1.2 1.2 0 1 0-1.3 2l.6.2V15c0 2.7 3.3 5 7.7 5s7.8-2.3 7.8-5v-1.3zM7 13.5a1.5 1.5 0 1 1 3 0 1.5 1.5 0 0 1-3 0m7 0a1.5 1.5 0 1 1 3 0 1.5 1.5 0 0 1-3 0m-2 5.1q-2.2 0-4-1.2a.4.4 0 0 1 .7-.6q1.5 1 3.3 1t3.2-1a.4.4 0 0 1 .8.2q0 .3-.2.5c-.6.8-2.4 1.1-3.8 1.1"/></svg>
